<svg width="16" height="22" viewBox="0 0 16 22" fill="none" xmlns="http://www.w3.org/2000/svg">
<path d="M2.66667 0.5C1.95942 0.5 1.28115 0.776562 0.781048 1.26884C0.280951 1.76113 0 2.42881 0 3.125V18.875C0 19.5712 0.280951 20.2389 0.781048 20.7312C1.28115 21.2234 1.95942 21.5 2.66667 21.5H15.3333C15.5101 21.5 15.6797 21.4309 15.8047 21.3078C15.9298 21.1847 16 21.0178 16 20.8438C16 20.6697 15.9298 20.5028 15.8047 20.3797C15.6797 20.2566 15.5101 20.1875 15.3333 20.1875H2.66667C2.31304 20.1875 1.97391 20.0492 1.72386 19.8031C1.47381 19.5569 1.33333 19.2231 1.33333 18.875H14.6667C15.0203 18.875 15.3594 18.7367 15.6095 18.4906C15.8595 18.2444 16 17.9106 16 17.5625V3.125C16 2.42881 15.719 1.76113 15.219 1.26884C14.7189 0.776562 14.0406 0.5 13.3333 0.5H2.66667ZM3.66667 3.78125H12.3333C12.5985 3.78125 12.8529 3.88496 13.0404 4.06957C13.228 4.25417 13.3333 4.50455 13.3333 4.76562C13.3333 5.0267 13.228 5.27708 13.0404 5.46168C12.8529 5.64629 12.5985 5.75 12.3333 5.75H3.66667C3.40145 5.75 3.1471 5.64629 2.95956 5.46168C2.77202 5.27708 2.66667 5.0267 2.66667 4.76562C2.66667 4.50455 2.77202 4.25417 2.95956 4.06957C3.1471 3.88496 3.40145 3.78125 3.66667 3.78125Z" fill="#015FE8"/>
</svg>
