<svg width="20" height="19" viewBox="0 0 20 19" fill="none" xmlns="http://www.w3.org/2000/svg">
<path d="M13.3641 0.00878906H5.70034C4.20288 0.0105491 2.76727 0.606259 1.70849 1.66521C0.649714 2.72417 0.0542444 4.15988 0.0527344 5.65735V13.3211C0.0544944 14.8185 0.650204 16.2542 1.70916 17.3129C2.76812 18.3717 4.20383 18.9672 5.70129 18.9687H13.365C14.8625 18.9669 16.2981 18.3712 17.3569 17.3123C18.4157 16.2533 19.0111 14.8176 19.0126 13.3201V5.6564C19.0109 4.15893 18.4152 2.72332 17.3562 1.66454C16.2973 0.605769 14.8615 0.0102991 13.3641 0.00878906ZM17.1057 13.3201C17.1057 13.8115 17.0089 14.298 16.8209 14.752C16.6329 15.206 16.3573 15.6184 16.0098 15.9659C15.6624 16.3133 15.2499 16.5889 14.7959 16.777C14.342 16.965 13.8554 17.0618 13.3641 17.0618H5.70034C4.70816 17.0615 3.7567 16.6672 3.05521 15.9655C2.35372 15.2639 1.95965 14.3123 1.95965 13.3201V5.6564C1.9599 4.66422 2.35422 3.71276 3.05588 3.01127C3.75755 2.30978 4.70911 1.9157 5.70129 1.9157H13.365C14.3572 1.91595 15.3087 2.31027 16.0102 3.01194C16.7116 3.71361 17.1057 4.66517 17.1057 5.65735V13.3211V13.3201Z" fill="white"/>
<path d="M9.5323 4.58496C8.2326 4.58697 6.98673 5.10422 6.06781 6.02332C5.14889 6.94241 4.63189 8.1884 4.63013 9.488C4.63163 10.788 5.14866 12.0344 6.06781 12.9537C6.98696 13.873 8.2332 14.3903 9.5332 14.3921C10.8334 14.3906 12.0799 13.8734 12.9992 12.954C13.9186 12.0347 14.4357 10.7882 14.4372 9.488C14.4352 8.188 13.9177 6.9419 12.9982 6.02293C12.0787 5.10395 10.8323 4.58622 9.5323 4.58496ZM9.5323 12.4852C8.7376 12.4852 7.97554 12.1695 7.41365 11.6076C6.85175 11.0457 6.53609 10.2836 6.53609 9.489C6.53609 8.6944 6.85175 7.93227 7.41365 7.37038C7.97554 6.80849 8.7376 6.49282 9.5323 6.49282C10.3269 6.49282 11.089 6.80849 11.6509 7.37038C12.2128 7.93227 12.5284 8.6944 12.5284 9.489C12.5284 10.2836 12.2128 11.0457 11.6509 11.6076C11.089 12.1695 10.3269 12.4852 9.5323 12.4852Z" fill="white"/>
<path d="M14.4455 5.79672C15.0943 5.79672 15.6202 5.27077 15.6202 4.62199C15.6202 3.97321 15.0943 3.44727 14.4455 3.44727C13.7967 3.44727 13.2708 3.97321 13.2708 4.62199C13.2708 5.27077 13.7967 5.79672 14.4455 5.79672Z" fill="white"/>
</svg>
