<svg width="19" height="19" viewBox="0 0 19 19" fill="none" xmlns="http://www.w3.org/2000/svg">
<path d="M18.993 11.1375V18.1451H14.9304V11.6067C14.9304 9.96376 14.3425 8.84317 12.8725 8.84317C11.75 8.84317 11.0814 9.5991 10.788 10.3294C10.6807 10.5905 10.6531 10.9543 10.6531 11.3199V18.1451H6.5886C6.5886 18.1451 6.64368 7.07206 6.5886 5.92392H10.6531V7.6561L10.6265 7.69598H10.6531V7.6561C11.1925 6.82515 12.1564 5.63713 14.315 5.63713C16.9883 5.63713 18.993 7.3845 18.993 11.1375V11.1375ZM2.33794 0.0332031C0.94859 0.0332031 0.0388184 0.944874 0.0388184 2.14429C0.0388184 3.31712 0.921999 4.25633 2.28476 4.25633H2.31135C3.72918 4.25633 4.60952 3.31712 4.60952 2.14429C4.58483 0.944874 3.73013 0.0332031 2.33889 0.0332031H2.33794ZM0.280031 18.1451H4.34266V5.92392H0.280031V18.1451Z" fill="white"/>
</svg>
