<svg width="20" height="17" viewBox="0 0 20 17" fill="none" xmlns="http://www.w3.org/2000/svg">
<path d="M19.0595 2.71865C18.3477 3.02955 17.5937 3.2334 16.8221 3.32358C17.632 2.84803 18.241 2.09388 18.5353 1.20205C17.768 1.6487 16.9311 1.9633 16.0596 2.13271C15.6926 1.7483 15.2511 1.44268 14.7621 1.23451C14.2731 1.02633 13.7468 0.919969 13.2154 0.921901C11.0634 0.921901 9.31891 2.64078 9.31891 4.75851C9.31891 5.05861 9.3531 5.35205 9.41958 5.6322C7.87598 5.55878 6.36464 5.16441 4.98199 4.47422C3.59934 3.78404 2.37574 2.81322 1.38928 1.6237C1.04344 2.20717 0.861663 2.87324 0.863168 3.5515C0.86383 4.18584 1.02255 4.81001 1.32498 5.36762C1.62741 5.92522 2.06401 6.39868 2.59534 6.7452C1.97758 6.72525 1.37315 6.56032 0.83088 6.26372V6.3112C0.83088 8.17063 2.17464 9.72142 3.95525 10.0747C3.6206 10.1635 3.27585 10.2085 2.92962 10.2086C2.67796 10.2086 2.4339 10.1849 2.19554 10.1374C2.45012 10.9046 2.93732 11.5735 3.58946 12.0513C4.2416 12.529 5.02632 12.7917 5.83462 12.8031C4.44819 13.871 2.74617 14.4479 0.99612 14.4431C0.680834 14.4431 0.371246 14.4241 0.0664062 14.3899C1.85295 15.5207 3.92448 16.1195 6.0388 16.1164C13.2059 16.1164 17.1241 10.2694 17.1241 5.19916L17.1108 4.70248C17.8752 4.16467 18.5355 3.49248 19.0595 2.71865V2.71865Z" fill="white"/>
</svg>
