<svg width="20" height="15" viewBox="0 0 20 15" fill="none" xmlns="http://www.w3.org/2000/svg">
<path d="M15.1097 0.87302H4.03008C1.85536 0.87302 0.09375 2.61564 0.09375 4.76566V10.2433C0.09375 12.3933 1.85631 14.1369 4.03008 14.1369H15.1097C17.2844 14.1369 19.0461 12.3933 19.0461 10.2433V4.76566C19.0461 2.61564 17.2835 0.87207 15.1097 0.87207V0.87302ZM12.4478 7.77038L7.26556 10.2157C7.23395 10.231 7.199 10.2379 7.16398 10.236C7.12895 10.2341 7.09497 10.2234 7.06521 10.2048C7.03545 10.1862 7.01087 10.1604 6.99377 10.1298C6.97666 10.0991 6.96758 10.0647 6.96737 10.0296V4.98788C6.968 4.95263 6.97755 4.9181 6.99512 4.88753C7.01269 4.85695 7.03771 4.83133 7.06786 4.81303C7.098 4.79473 7.13229 4.78437 7.16752 4.78289C7.20276 4.78142 7.23779 4.78889 7.26936 4.8046L12.4526 7.40191C12.4871 7.41913 12.5161 7.44573 12.5362 7.47867C12.5562 7.5116 12.5666 7.54953 12.5661 7.58811C12.5656 7.62668 12.5543 7.66434 12.5334 7.69674C12.5124 7.72915 12.4828 7.755 12.4478 7.77133V7.77038Z" fill="white"/>
</svg>
